<?xml version="1.0" encoding="UTF-8"?>
<!DOCTYPE svg PUBLIC "-//W3C//DTD SVG 1.1//EN" "http://www.w3.org/Graphics/SVG/1.1/DTD/svg11.dtd">
<svg xmlns="http://www.w3.org/2000/svg" version="1.1" width="400px" height="400px" style="shape-rendering:geometricPrecision; text-rendering:geometricPrecision; image-rendering:optimizeQuality; fill-rule:evenodd; clip-rule:evenodd" xmlns:xlink="http://www.w3.org/1999/xlink">
<g><path style="opacity:0.994" fill="#aeb8c0" d="M 124.5,13.5 C 128.853,15.2022 133.353,16.5355 138,17.5C 138.333,17.1667 138.667,16.8333 139,16.5C 148.281,17.5964 157.115,19.263 165.5,21.5C 170.507,20.8673 175.341,21.8673 180,24.5C 180.414,24.0426 180.914,23.7093 181.5,23.5C 242.523,33.2887 303.523,43.1221 364.5,53C 365.293,54.0852 365.96,55.2519 366.5,56.5C 365.324,61.5386 363.99,66.5386 362.5,71.5C 362.833,72.1667 363.167,72.8333 363.5,73.5C 360.236,88.097 356.569,102.93 352.5,118C 352.957,118.414 353.291,118.914 353.5,119.5C 352.352,123.43 351.018,127.264 349.5,131C 350.137,134.135 349.471,137.135 347.5,140C 347.957,140.414 348.291,140.914 348.5,141.5C 345.736,151.066 343.069,160.566 340.5,170C 341.595,172.171 340.928,173.838 338.5,175C 339.179,179.715 338.179,184.215 335.5,188.5C 335.709,189.086 336.043,189.586 336.5,190C 333.214,200.625 329.881,211.125 326.5,221.5C 326.709,222.086 327.043,222.586 327.5,223C 325.235,226.83 324.068,230.997 324,235.5C 321.534,241.065 319.368,246.732 317.5,252.5C 317.833,253.167 318.167,253.833 318.5,254.5C 309.451,281.448 300.951,308.114 293,334.5C 287.913,348.548 282.913,362.548 278,376.5C 277.186,378.282 276.019,379.782 274.5,381C 265.156,380.665 255.989,379.165 247,376.5C 246.127,376.735 245.293,377.069 244.5,377.5C 227.074,373.146 209.574,369.813 192,367.5C 191.228,367.645 190.561,367.978 190,368.5C 169.786,364.973 149.952,361.806 130.5,359C 128.649,358.163 126.816,357.329 125,356.5C 124.374,358.991 123.541,358.991 122.5,356.5C 121.914,356.709 121.414,357.043 121,357.5C 95.0204,352.745 68.8537,348.578 42.5,345C 41.5787,343.244 40.412,343.077 39,344.5C 35.4444,343.482 32.1111,342.149 29,340.5C 28.7083,338.674 28.875,336.841 29.5,335C 65.8303,235.749 93.997,134.915 114,32.5C 114.734,28.9603 115.901,25.627 117.5,22.5C 116.42,19.8738 116.754,17.3738 118.5,15C 120.708,14.8091 122.708,14.3091 124.5,13.5 Z"/></g>
<g><path style="opacity:1" fill="#fdfdfd" d="M 123.5,21.5 C 201.991,33.7774 280.324,46.1107 358.5,58.5C 337.786,166.123 308.786,271.123 271.5,373.5C 207.123,363.857 142.79,354.024 78.5,344C 65.7131,340.944 52.7131,338.611 39.5,337C 38.4844,336.481 37.8178,335.647 37.5,334.5C 68.1841,248.189 93.6841,160.189 114,70.5C 116.892,54.0701 120.059,37.7367 123.5,21.5 Z"/></g>
<g><path style="opacity:1" fill="#b0b9c1" d="M 128.5,97.5 C 151.518,100.86 174.518,104.36 197.5,108C 198.672,108.419 199.672,109.085 200.5,110C 199.107,111.171 198.273,112.671 198,114.5C 196.828,119.854 195.661,125.187 194.5,130.5C 222.156,135.081 249.823,139.247 277.5,143C 290.738,145.763 303.904,148.263 317,150.5C 314.692,163.088 312.025,175.755 309,188.5C 303.85,205.71 299.017,223.043 294.5,240.5C 279.496,240.062 264.83,237.895 250.5,234C 200.615,226.384 150.615,218.718 100.5,211C 99.6433,210.311 98.9767,209.478 98.5,208.5C 109.281,171.707 119.281,134.707 128.5,97.5 Z"/></g>
<g><path style="opacity:1" fill="#fbfbfb" d="M 175.5,200.5 C 185.65,200.586 195.483,202.252 205,205.5C 205.725,204.941 206.558,204.608 207.5,204.5C 235.229,209.954 263.229,214.454 291.5,218C 292.99,218.745 293.99,219.912 294.5,221.5C 293.121,225.764 291.955,230.098 291,234.5C 289.431,235.122 287.764,235.456 286,235.5C 253.518,230.241 221.018,225.074 188.5,220C 182.611,219.095 176.944,217.595 171.5,215.5C 172.844,210.472 174.178,205.472 175.5,200.5 Z"/></g>
<g><path style="opacity:1" fill="#fbfbfb" d="M 108.5,189.5 C 129.24,192.859 149.907,196.192 170.5,199.5C 170.237,205.619 168.57,211.286 165.5,216.5C 145.26,212.404 124.926,209.071 104.5,206.5C 106.594,201.034 107.927,195.368 108.5,189.5 Z"/></g>
<g><path style="opacity:1" fill="#7c838a" d="M 142.5,199.5 C 144.199,199.34 145.866,199.506 147.5,200C 149.007,200.837 149.507,202.004 149,203.5C 146.861,204.769 144.695,204.769 142.5,203.5C 141.193,202.135 141.193,200.802 142.5,199.5 Z"/></g>
<g><path style="opacity:1" fill="#838a91" d="M 123.5,195.5 C 126.846,196.074 130.179,196.74 133.5,197.5C 135.254,200.813 134.254,202.48 130.5,202.5C 128.133,202.158 125.8,201.658 123.5,201C 122.248,199.172 122.248,197.339 123.5,195.5 Z"/></g>
<g><path style="opacity:1" fill="#fafbfb" d="M 181.5,179.5 C 185.846,179.334 190.179,179.501 194.5,180C 204.492,181.693 214.326,183.527 224,185.5C 249.807,188.728 275.64,192.895 301.5,198C 299.235,201.83 298.068,205.997 298,210.5C 297.519,212.478 296.353,213.811 294.5,214.5C 255.924,208.172 217.258,201.839 178.5,195.5C 178.674,189.989 179.674,184.655 181.5,179.5 Z"/></g>
<g><path style="opacity:1" fill="#868d93" d="M 230.5,191.5 C 233.607,191.351 236.607,191.851 239.5,193C 240.99,195.2 240.657,197.034 238.5,198.5C 235.833,197.833 233.167,197.167 230.5,196.5C 229.334,194.833 229.334,193.166 230.5,191.5 Z"/></g>
<g><path style="opacity:1" fill="#7f858c" d="M 221.5,189.5 C 222.5,189.5 223.5,189.5 224.5,189.5C 224.421,190.93 224.754,192.264 225.5,193.5C 223.604,194.466 221.604,194.799 219.5,194.5C 219.392,192.486 220.058,190.82 221.5,189.5 Z"/></g>
<g><path style="opacity:1" fill="#82888f" d="M 209.5,187.5 C 213.446,187.488 215.113,189.488 214.5,193.5C 209.092,194.433 207.425,192.433 209.5,187.5 Z"/></g>
<g><path style="opacity:1" fill="#7f868d" d="M 190.5,184.5 C 195.054,184.614 199.387,185.614 203.5,187.5C 203.778,189.346 203.111,190.68 201.5,191.5C 198.223,190.746 194.89,190.246 191.5,190C 190.572,189.612 189.905,188.945 189.5,188C 189.989,186.862 190.322,185.695 190.5,184.5 Z"/></g>
<g><path style="opacity:1" fill="#fafbfb" d="M 115.5,168.5 C 135.813,171.581 156.147,174.581 176.5,177.5C 175.502,182.496 174.335,187.496 173,192.5C 172.612,193.428 171.945,194.095 171,194.5C 151.255,190.918 131.422,187.918 111.5,185.5C 111.573,179.452 112.907,173.785 115.5,168.5 Z"/></g>
<g><path style="opacity:1" fill="#8a9097" d="M 153.5,178.5 C 157.701,178.426 159.035,180.259 157.5,184C 151.527,185.16 150.193,183.326 153.5,178.5 Z"/></g>
<g><path style="opacity:1" fill="#828990" d="M 140.5,177.5 C 142.591,177.318 144.591,177.652 146.5,178.5C 147.583,179.365 147.749,180.365 147,181.5C 142.552,183.661 140.385,182.328 140.5,177.5 Z"/></g>
<g><path style="opacity:1" fill="#8e959b" d="M 128.5,174.5 C 134.422,175.166 135.422,177.5 131.5,181.5C 126.361,180.733 125.361,178.4 128.5,174.5 Z"/></g>
<g><path style="opacity:1" fill="#fafafb" d="M 188.5,157.5 C 227.448,163.379 266.448,169.379 305.5,175.5C 304.394,181.137 303.394,186.804 302.5,192.5C 263.078,186.732 223.745,180.565 184.5,174C 183.978,173.439 183.645,172.772 183.5,172C 184.362,166.799 186.029,161.966 188.5,157.5 Z"/></g>
<g><path style="opacity:1" fill="#8a9097" d="M 263.5,174.5 C 267.603,173.769 271.103,174.769 274,177.5C 274.915,179.92 274.082,181.253 271.5,181.5C 269.06,180.107 266.393,179.273 263.5,179C 262.587,177.586 262.587,176.086 263.5,174.5 Z"/></g>
<g><path style="opacity:1" fill="#80868e" d="M 250.5,173.5 C 252.527,173.338 254.527,173.505 256.5,174C 257.833,175.333 257.833,176.667 256.5,178C 254.866,178.494 253.199,178.66 251.5,178.5C 251.371,176.784 251.038,175.117 250.5,173.5 Z"/></g>
<g><path style="opacity:1" fill="#7d848b" d="M 238.5,171.5 C 240.5,171.5 242.5,171.5 244.5,171.5C 244.241,175.068 242.241,176.401 238.5,175.5C 238.5,174.167 238.5,172.833 238.5,171.5 Z"/></g>
<g><path style="opacity:1" fill="#828990" d="M 220.5,167.5 C 224.154,167.942 227.821,168.276 231.5,168.5C 231.819,170.75 231.319,172.75 230,174.5C 226.924,173.712 223.758,173.212 220.5,173C 219.248,171.172 219.248,169.339 220.5,167.5 Z"/></g>
<g><path style="opacity:1" fill="#858b92" d="M 207.5,165.5 C 211.938,164.425 213.938,166.092 213.5,170.5C 211.473,170.662 209.473,170.495 207.5,170C 206.272,168.51 206.272,167.01 207.5,165.5 Z"/></g>
<g><path style="opacity:1" fill="#81888f" d="M 196.5,164.5 C 198.167,164.5 199.833,164.5 201.5,164.5C 201.5,166.167 201.5,167.833 201.5,169.5C 196.58,170.585 194.913,168.918 196.5,164.5 Z"/></g>
<g><path style="opacity:1" fill="#fbfbfb" d="M 120.5,146.5 C 141.106,149.738 161.773,152.738 182.5,155.5C 180.455,160.973 179.455,166.64 179.5,172.5C 158.968,169.953 138.301,166.953 117.5,163.5C 118.384,157.798 119.384,152.132 120.5,146.5 Z"/></g>
<g><path style="opacity:1" fill="#7d848b" d="M 160.5,158.5 C 163.364,158.064 165.697,158.897 167.5,161C 163.716,164.633 161.383,163.8 160.5,158.5 Z"/></g>
<g><path style="opacity:1" fill="#8b9197" d="M 142.5,155.5 C 147.079,155.153 151.412,155.82 155.5,157.5C 156.085,160.261 155.085,161.927 152.5,162.5C 149.855,161.892 147.188,161.392 144.5,161C 142.845,159.556 142.178,157.722 142.5,155.5 Z"/></g>
<g><path style="opacity:1" fill="#8c9298" d="M 131.5,153.5 C 133.5,153.833 135.5,154.167 137.5,154.5C 137.714,156.144 137.38,157.644 136.5,159C 134.512,159.18 132.512,159.014 130.5,158.5C 130.629,156.784 130.962,155.117 131.5,153.5 Z"/></g>
<g><path style="opacity:1" fill="#fbfbfb" d="M 192.5,135.5 C 232.065,142.223 271.732,148.223 311.5,153.5C 310.483,159.288 309.15,164.954 307.5,170.5C 268.117,165.379 229.117,159.212 190.5,152C 190.043,151.586 189.709,151.086 189.5,150.5C 191.085,145.597 192.085,140.597 192.5,135.5 Z"/></g>
<g><path style="opacity:1" fill="#7d848b" d="M 240.5,149.5 C 243.167,149.5 245.833,149.5 248.5,149.5C 248.5,151.167 248.5,152.833 248.5,154.5C 245.873,153.908 243.206,153.575 240.5,153.5C 240.5,152.167 240.5,150.833 240.5,149.5 Z"/></g>
<g><path style="opacity:1" fill="#7f868d" d="M 229.5,146.5 C 231.308,146.491 232.975,146.991 234.5,148C 235.451,148.718 235.617,149.551 235,150.5C 230.085,152.679 228.251,151.346 229.5,146.5 Z"/></g>
<g><path style="opacity:1" fill="#7b8289" d="M 212.5,144.5 C 215.874,144.674 219.207,145.174 222.5,146C 223.38,147.356 223.714,148.856 223.5,150.5C 219.993,150.693 216.66,150.027 213.5,148.5C 212.571,147.311 212.238,145.978 212.5,144.5 Z"/></g>
<g><path style="opacity:1" fill="#7f868d" d="M 200.5,143.5 C 202.527,143.338 204.527,143.505 206.5,144C 207.517,145.049 207.684,146.216 207,147.5C 203.857,149.172 201.357,148.506 199.5,145.5C 199.863,144.817 200.196,144.15 200.5,143.5 Z"/></g>
<g><path style="opacity:1" fill="#fafafb" d="M 125.5,124.5 C 146.169,127.606 166.835,130.939 187.5,134.5C 186.504,139.825 185.504,145.158 184.5,150.5C 164.594,147.485 144.594,144.652 124.5,142C 123.422,141.326 122.755,140.326 122.5,139C 123.949,134.252 124.949,129.419 125.5,124.5 Z"/></g>
<g><path style="opacity:1" fill="#7b8289" d="M 163.5,136.5 C 165.5,136.833 167.5,137.167 169.5,137.5C 169.467,142.407 167.134,143.74 162.5,141.5C 161.316,139.533 161.649,137.866 163.5,136.5 Z"/></g>
<g><path style="opacity:1" fill="#7f868d" d="M 151.5,135.5 C 153.167,135.5 154.833,135.5 156.5,135.5C 157.085,138.261 156.085,139.927 153.5,140.5C 150.831,139.51 150.165,137.844 151.5,135.5 Z"/></g>
<g><path style="opacity:1" fill="#838990" d="M 136.5,132.5 C 139.216,132.678 141.883,133.178 144.5,134C 146.09,136.48 145.59,138.313 143,139.5C 140.567,138.521 138.067,137.855 135.5,137.5C 135.366,135.708 135.699,134.042 136.5,132.5 Z"/></g>
<g><path style="opacity:1" fill="#fafbfb" d="M 131.5,103.5 C 151.895,106.051 172.228,108.884 192.5,112C 193.059,112.725 193.392,113.558 193.5,114.5C 192.014,118.685 190.847,123.018 190,127.5C 189.311,128.357 188.478,129.023 187.5,129.5C 167.328,126.572 147.328,122.905 127.5,118.5C 128.835,113.427 130.169,108.427 131.5,103.5 Z"/></g>
<g><path style="opacity:1" fill="#828990" d="M 167.5,114.5 C 169.857,114.337 172.19,114.503 174.5,115C 177.372,117.532 177.039,119.365 173.5,120.5C 169.594,120.243 167.594,118.243 167.5,114.5 Z"/></g>
<g><path style="opacity:1" fill="#8a9097" d="M 155.5,112.5 C 157.199,112.34 158.866,112.506 160.5,113C 161.833,114.333 161.833,115.667 160.5,117C 158.866,117.494 157.199,117.66 155.5,117.5C 155.5,115.833 155.5,114.167 155.5,112.5 Z"/></g>
<g><path style="opacity:1" fill="#888e95" d="M 139.5,109.5 C 142.487,109.998 145.487,110.498 148.5,111C 151.28,114.519 150.28,116.353 145.5,116.5C 139.702,116.986 137.702,114.652 139.5,109.5 Z"/></g>
<g><path style="opacity:1" fill="#51565a" d="M 269.5,58.5 C 276.571,58.6781 283.571,59.5114 290.5,61C 292.676,61.1629 294.509,61.9963 296,63.5C 296.384,69.9625 294.884,75.9625 291.5,81.5C 287.918,82.3206 287.752,83.3206 291,84.5C 291.667,85.8333 291.667,87.1667 291,88.5C 288.415,93.5807 285.248,98.2473 281.5,102.5C 283.813,104.989 285.147,107.989 285.5,111.5C 281.423,110.549 277.59,108.882 274,106.5C 271.681,107.871 269.181,108.538 266.5,108.5C 266.738,104.862 268.404,102.029 271.5,100C 270.91,98.4905 270.244,96.9905 269.5,95.5C 267.176,99.4942 264.843,103.494 262.5,107.5C 260.955,108.452 259.288,108.785 257.5,108.5C 258.239,102.783 260.072,97.4494 263,92.5C 265.173,81.1465 267.34,69.8132 269.5,58.5 Z"/></g>
<g><path style="opacity:1" fill="#dedfe0" d="M 275.5,89.5 C 277.83,88.0813 279.83,88.5813 281.5,91C 278.025,97.1498 276.025,96.6498 275.5,89.5 Z"/></g>
<g><path style="opacity:1" fill="#4e5358" d="M 187.5,46.5 C 191.567,48.0538 195.9,48.7204 200.5,48.5C 205.603,48.9739 210.603,50.3072 215.5,52.5C 215.036,66.8863 212.702,81.053 208.5,95C 207.663,96.587 206.33,97.4204 204.5,97.5C 193.81,95.8062 183.144,93.9729 172.5,92C 171.978,91.4387 171.645,90.772 171.5,90C 173.43,77.1828 175.597,64.3495 178,51.5C 179.057,49.7806 179.89,47.9472 180.5,46C 182.797,45.9822 185.131,46.1489 187.5,46.5 Z"/></g>
<g><path style="opacity:1" fill="#4d5257" d="M 251.5,53.5 C 256.222,53.3002 257.889,55.3002 256.5,59.5C 258.423,60.3078 260.423,60.8078 262.5,61C 264.592,61.9525 264.925,63.2859 263.5,65C 260.518,65.498 257.518,65.6646 254.5,65.5C 254.215,67.288 254.548,68.9547 255.5,70.5C 257.854,71.0601 260.187,71.7267 262.5,72.5C 263.248,74.4159 263.248,76.4159 262.5,78.5C 260.5,78.5 258.5,78.5 256.5,78.5C 256.007,80.8056 255.674,83.139 255.5,85.5C 259.788,85.5582 261.121,87.5582 259.5,91.5C 256.255,91.9737 252.921,91.9737 249.5,91.5C 249.5,92.5 249.5,93.5 249.5,94.5C 252.059,94.3896 254.392,95.0562 256.5,96.5C 256.099,98.4342 255.099,99.9342 253.5,101C 251.1,101.186 248.766,101.686 246.5,102.5C 245.267,105.449 243.267,106.116 240.5,104.5C 239.701,100.093 237.034,98.0933 232.5,98.5C 232.5,96.5 232.5,94.5 232.5,92.5C 235.5,92.5 238.5,92.5 241.5,92.5C 241.719,91.325 241.386,90.325 240.5,89.5C 237.373,88.4364 234.373,87.1031 231.5,85.5C 232.246,84.2638 232.579,82.9305 232.5,81.5C 234.833,81.5 237.167,81.5 239.5,81.5C 240.906,76.0687 238.906,73.7353 233.5,74.5C 233.261,72.5328 233.594,70.6995 234.5,69C 238.459,69.1582 242.459,69.3249 246.5,69.5C 246.5,67.5 246.5,65.5 246.5,63.5C 243.834,63.067 241.168,62.567 238.5,62C 237.483,60.9505 237.316,59.7839 238,58.5C 241.411,57.7069 244.911,57.2069 248.5,57C 249.365,55.6412 250.365,54.4745 251.5,53.5 Z"/></g>
<g><path style="opacity:1" fill="#e6e7e7" d="M 246.5,76.5 C 252.393,77.0188 252.893,79.0188 248,82.5C 245.327,81.1417 244.827,79.1417 246.5,76.5 Z"/></g>
<g><path style="opacity:1" fill="#f6f6f6" d="M 185.5,75.5 C 189.143,76.4906 192.809,77.4906 196.5,78.5C 198.876,77.1834 200.543,77.8501 201.5,80.5C 201.06,82.7649 200.394,84.9316 199.5,87C 194.037,87.7536 188.704,87.2536 183.5,85.5C 183.31,81.9682 183.977,78.6348 185.5,75.5 Z"/></g>
<g><path style="opacity:1" fill="#f1f1f1" d="M 275.5,67.5 C 279.534,67.5045 283.534,67.8379 287.5,68.5C 287.663,70.8568 287.497,73.1902 287,75.5C 285.829,76.8932 284.329,77.7265 282.5,78C 283.833,79.3333 285.167,80.6667 286.5,82C 281.839,82.1694 277.172,82.0027 272.5,81.5C 272.679,76.6363 273.679,71.9697 275.5,67.5 Z"/></g>
<g><path style="opacity:1" fill="#f1f1f1" d="M 187.5,56.5 C 193.369,56.048 199.035,56.8813 204.5,59C 205.777,61.4659 205.777,63.9659 204.5,66.5C 199.518,67.437 194.518,67.2703 189.5,66C 186.42,63.3547 185.753,60.188 187.5,56.5 Z"/></g>
<g><path style="opacity:1" fill="#a1a3a5" d="M 187.5,46.5 C 192.049,46.6245 196.382,47.2911 200.5,48.5C 195.9,48.7204 191.567,48.0538 187.5,46.5 Z"/></g>
<g><path style="opacity:1" fill="#848a91" d="M 184.5,208.5 C 187.187,208.336 189.854,208.503 192.5,209C 194.658,210.312 194.991,211.978 193.5,214C 192.667,214.167 191.833,214.333 191,214.5C 188.941,213.382 186.774,212.715 184.5,212.5C 184.5,211.167 184.5,209.833 184.5,208.5 Z"/></g>
<g><path style="opacity:1" fill="#81888e" d="M 198.5,210.5 C 201.665,209.964 204.331,210.797 206.5,213C 204.336,215.33 201.669,215.997 198.5,215C 197.272,213.51 197.272,212.01 198.5,210.5 Z"/></g>
<g><path style="opacity:1" fill="#7a8188" d="M 210.5,212.5 C 212.527,212.338 214.527,212.505 216.5,213C 217.93,214.88 217.596,216.38 215.5,217.5C 213.929,216.691 212.262,216.357 210.5,216.5C 210.5,215.167 210.5,213.833 210.5,212.5 Z"/></g>
<g><path style="opacity:1" fill="#b0b9c2" d="M 96.5,218.5 C 154.251,227.062 212.084,236.062 270,245.5C 276.822,246.332 283.656,246.999 290.5,247.5C 289.184,255.949 287.35,264.282 285,272.5C 279.063,288.893 273.73,305.56 269,322.5C 267.922,324.39 266.255,325.39 264,325.5C 200.327,315.693 136.827,305.526 73.5,295C 72.4464,293.612 72.2797,292.112 73,290.5C 77.9443,278.032 81.9443,265.366 85,252.5C 89.1373,241.255 92.9706,229.921 96.5,218.5 Z"/></g>
<g><path style="opacity:1" fill="#fbfbfb" d="M 99.5,223.5 C 161.036,232.408 222.703,242.075 284.5,252.5C 284.662,254.527 284.495,256.527 284,258.5C 277.563,278.845 271.063,299.178 264.5,319.5C 263.667,319.833 262.833,320.167 262,320.5C 200.82,310.594 139.653,300.927 78.5,291.5C 85.9274,268.89 92.9274,246.223 99.5,223.5 Z"/></g>
<g><path style="opacity:1" fill="#848a91" d="M 181.5,289.5 C 185.059,289.408 188.392,290.241 191.5,292C 193.11,295.405 191.944,296.905 188,296.5C 185.747,296.369 183.581,295.869 181.5,295C 180.464,293.224 180.464,291.391 181.5,289.5 Z"/></g>
<g><path style="opacity:1" fill="#7d848b" d="M 165.5,287.5 C 168.487,287.998 171.487,288.498 174.5,289C 176.09,291.48 175.59,293.313 173,294.5C 170.5,293.667 168,292.833 165.5,292C 164.272,290.51 164.272,289.01 165.5,287.5 Z"/></g>
<g><path style="opacity:1" fill="#81888f" d="M 154.5,285.5 C 157.899,285.737 159.732,287.404 160,290.5C 154.42,292.752 152.587,291.085 154.5,285.5 Z"/></g>
<g><path style="opacity:1" fill="#788087" d="M 245.5,285.5 C 249.56,284.848 251.56,286.515 251.5,290.5C 247.062,291.575 245.062,289.908 245.5,285.5 Z"/></g>
<g><path style="opacity:1" fill="#848b91" d="M 235.5,283.5 C 240.325,283.332 241.992,285.332 240.5,289.5C 234.003,290.703 232.337,288.703 235.5,283.5 Z"/></g>
<g><path style="opacity:1" fill="#80878e" d="M 132.5,282.5 C 137.27,282.692 141.937,283.525 146.5,285C 148.11,288.405 146.944,289.905 143,289.5C 139.93,289.149 136.93,288.483 134,287.5C 131.697,286.257 131.197,284.591 132.5,282.5 Z"/></g>
<g><path style="opacity:1" fill="#81878e" d="M 222.5,281.5 C 224.527,281.338 226.527,281.505 228.5,282C 229.651,286.805 227.651,288.472 222.5,287C 221.248,285.172 221.248,283.339 222.5,281.5 Z"/></g>
<g><path style="opacity:1" fill="#858c92" d="M 121.5,281.5 C 123.199,281.34 124.866,281.506 126.5,282C 127.995,285.841 126.661,287.174 122.5,286C 121.833,285.333 121.167,284.667 120.5,284C 121.252,283.329 121.586,282.496 121.5,281.5 Z"/></g>
<g><path style="opacity:1" fill="#7d858c" d="M 103.5,277.5 C 106.691,278.72 110.025,279.553 113.5,280C 117.461,282.632 116.961,284.465 112,285.5C 109.474,284.936 106.974,284.269 104.5,283.5C 101.056,281.962 100.723,279.962 103.5,277.5 Z"/></g>
<g><path style="opacity:1" fill="#858c93" d="M 208.5,279.5 C 210.527,279.338 212.527,279.505 214.5,280C 215.38,281.356 215.714,282.856 215.5,284.5C 213.08,284.708 210.747,284.374 208.5,283.5C 207.708,282.3 207.708,280.967 208.5,279.5 Z"/></g>
<g><path style="opacity:1" fill="#878e94" d="M 91.5,277.5 C 95.938,276.425 97.938,278.092 97.5,282.5C 95.5,282.5 93.5,282.5 91.5,282.5C 91.5,280.833 91.5,279.167 91.5,277.5 Z"/></g>
<g><path style="opacity:1" fill="#81888f" d="M 184.5,275.5 C 190.632,275.947 196.632,277.114 202.5,279C 204.11,282.405 202.944,283.905 199,283.5C 194.477,282.795 189.977,281.962 185.5,281C 184.5,280.167 183.5,279.333 182.5,278.5C 183.193,277.482 183.859,276.482 184.5,275.5 Z"/></g>
<g><path style="opacity:1" fill="#7e858c" d="M 166.5,273.5 C 170.154,273.942 173.821,274.276 177.5,274.5C 177.837,277.83 176.337,279.496 173,279.5C 168.488,279.852 166.322,277.852 166.5,273.5 Z"/></g>
<g><path style="opacity:1" fill="#858c92" d="M 262.5,271.5 C 264.927,271.523 267.26,272.023 269.5,273C 270.856,275.274 270.356,277.107 268,278.5C 263.778,278.018 261.945,275.685 262.5,271.5 Z"/></g>
<g><path style="opacity:1" fill="#848a91" d="M 251.5,270.5 C 253.527,270.338 255.527,270.505 257.5,271C 259.118,273.8 258.285,275.3 255,275.5C 253.373,275.375 251.873,274.875 250.5,274C 251.337,272.989 251.67,271.822 251.5,270.5 Z"/></g>
<g><path style="opacity:1" fill="#838a91" d="M 155.5,271.5 C 160.923,271.603 161.756,273.603 158,277.5C 154.702,276.427 153.868,274.427 155.5,271.5 Z"/></g>
<g><path style="opacity:1" fill="#8d949a" d="M 146.5,270.5 C 148.199,270.34 149.866,270.506 151.5,271C 152.833,272.333 152.833,273.667 151.5,275C 149.866,275.494 148.199,275.66 146.5,275.5C 146.5,273.833 146.5,272.167 146.5,270.5 Z"/></g>
<g><path style="opacity:1" fill="#7e858c" d="M 229.5,266.5 C 234.098,267.854 238.764,269.021 243.5,270C 244.647,271.904 244.147,273.404 242,274.5C 238.206,273.77 234.373,273.27 230.5,273C 228.316,271.102 227.983,268.936 229.5,266.5 Z"/></g>
<g><path style="opacity:1" fill="#848b92" d="M 130.5,266.5 C 134.462,267.376 138.462,268.042 142.5,268.5C 142.582,271.585 141.082,273.252 138,273.5C 135.5,273 133,272.5 130.5,272C 129.464,270.224 129.464,268.391 130.5,266.5 Z"/></g>
<g><path style="opacity:1" fill="#7c838a" d="M 113.5,264.5 C 117.247,264.392 120.914,264.892 124.5,266C 125.856,268.274 125.356,270.107 123,271.5C 120.144,270.744 117.311,269.911 114.5,269C 113.62,267.644 113.286,266.144 113.5,264.5 Z"/></g>
<g><path style="opacity:1" fill="#868d93" d="M 212.5,263.5 C 215.91,263.457 219.243,263.957 222.5,265C 224.166,268.131 223.166,269.631 219.5,269.5C 217.423,269.308 215.423,268.808 213.5,268C 212.62,266.644 212.286,265.144 212.5,263.5 Z"/></g>
<g><path style="opacity:1" fill="#7b8289" d="M 201.5,262.5 C 203.527,262.338 205.527,262.505 207.5,263C 208.885,264.965 208.718,266.798 207,268.5C 205.175,267.897 203.341,267.23 201.5,266.5C 200.193,265.135 200.193,263.802 201.5,262.5 Z"/></g>
<g><path style="opacity:1" fill="#7c828a" d="M 95.5,261.5 C 99.4899,261.999 103.49,262.499 107.5,263C 109.592,263.953 109.925,265.286 108.5,267C 103.804,267.914 99.3036,267.414 95,265.5C 94.4209,264.072 94.5876,262.738 95.5,261.5 Z"/></g>
<g><path style="opacity:1" fill="#899096" d="M 191.5,259.5 C 196.536,259.349 198.203,261.515 196.5,266C 193.466,266.66 190.633,266.16 188,264.5C 187.333,263.5 187.333,262.5 188,261.5C 189.302,260.915 190.469,260.249 191.5,259.5 Z"/></g>
<g><path style="opacity:1" fill="#81878e" d="M 174.5,258.5 C 176.527,258.338 178.527,258.505 180.5,259C 181.833,260.667 181.833,262.333 180.5,264C 178.19,264.497 175.857,264.663 173.5,264.5C 173.325,262.379 173.659,260.379 174.5,258.5 Z"/></g>
<g><path style="opacity:1" fill="#898f95" d="M 162.5,256.5 C 165.899,256.737 167.732,258.404 168,261.5C 164.857,263.172 162.357,262.506 160.5,259.5C 161.193,258.482 161.859,257.482 162.5,256.5 Z"/></g>
<g><path style="opacity:1" fill="#858b92" d="M 245.5,254.5 C 247.801,255.06 250.134,255.56 252.5,256C 253.517,257.049 253.684,258.216 253,259.5C 247.562,261.98 245.062,260.313 245.5,254.5 Z"/></g>
<g><path style="opacity:1" fill="#888f96" d="M 258.5,256.5 C 263.766,257.644 269.099,258.644 274.5,259.5C 276.278,262.831 275.278,264.498 271.5,264.5C 266.545,264.4 262.045,263.066 258,260.5C 257.421,259.072 257.588,257.738 258.5,256.5 Z"/></g>
<g><path style="opacity:1" fill="#848b91" d="M 223.5,251.5 C 228.526,252.115 233.526,252.949 238.5,254C 239.406,255.699 239.739,257.533 239.5,259.5C 233.997,259.46 228.664,258.626 223.5,257C 222.248,255.172 222.248,253.339 223.5,251.5 Z"/></g>
<g><path style="opacity:1" fill="#7c838a" d="M 145.5,253.5 C 148.874,253.674 152.207,254.174 155.5,255C 157.972,258.093 156.972,259.593 152.5,259.5C 148.985,259.641 146.318,258.307 144.5,255.5C 144.863,254.817 145.196,254.15 145.5,253.5 Z"/></g>
<g><path style="opacity:1" fill="#888e95" d="M 135.5,252.5 C 137.199,252.34 138.866,252.506 140.5,253C 141.925,254.714 141.592,256.047 139.5,257C 135.077,258.081 133.744,256.581 135.5,252.5 Z"/></g>
<g><path style="opacity:1" fill="#878d94" d="M 123.5,249.5 C 127.534,249.67 128.868,251.504 127.5,255C 122.728,255.81 121.395,253.977 123.5,249.5 Z"/></g>
<g><path style="opacity:1" fill="#7e858c" d="M 211.5,249.5 C 213.167,249.5 214.833,249.5 216.5,249.5C 216.5,251.167 216.5,252.833 216.5,254.5C 212.218,254.893 210.551,253.226 211.5,249.5 Z"/></g>
<g><path style="opacity:1" fill="#80878e" d="M 192.5,246.5 C 196.163,246.952 199.83,247.452 203.5,248C 204.38,249.356 204.714,250.856 204.5,252.5C 200.395,252.766 196.395,252.266 192.5,251C 191.272,249.51 191.272,248.01 192.5,246.5 Z"/></g>
<g><path style="opacity:1" fill="#7e858c" d="M 101.5,246.5 C 105.879,247.013 110.213,247.847 114.5,249C 115.38,250.356 115.714,251.856 115.5,253.5C 110.804,253.329 106.137,252.829 101.5,252C 98.8922,250.063 98.8922,248.23 101.5,246.5 Z"/></g>
<g><path style="opacity:1" fill="#7f868d" d="M 172.5,243.5 C 177.854,243.569 183.187,243.902 188.5,244.5C 188.66,246.199 188.494,247.866 188,249.5C 187.439,250.022 186.772,250.355 186,250.5C 182.25,249.292 178.416,248.458 174.5,248C 172.963,246.89 172.297,245.39 172.5,243.5 Z"/></g>
<g><path style="opacity:1" fill="#7d848b" d="M 161.5,241.5 C 163.527,241.338 165.527,241.505 167.5,242C 168.38,243.356 168.714,244.856 168.5,246.5C 166.167,246.5 163.833,246.5 161.5,246.5C 161.5,244.833 161.5,243.167 161.5,241.5 Z"/></g>
<g><path style="opacity:1" fill="#7f868d" d="M 131.5,236.5 C 136.237,236.881 140.904,237.714 145.5,239C 146.925,240.714 146.592,242.047 144.5,243C 143.167,243.167 141.833,243.333 140.5,243.5C 137.494,242.821 134.494,242.154 131.5,241.5C 131.5,239.833 131.5,238.167 131.5,236.5 Z"/></g>
<g><path style="opacity:1" fill="#838a91" d="M 149.5,238.5 C 154.006,237.527 156.172,239.194 156,243.5C 151.472,245.152 149.305,243.486 149.5,238.5 Z"/></g>
<g><path style="opacity:1" fill="#848b92" d="M 117.5,234.5 C 119.833,234.5 122.167,234.5 124.5,234.5C 124.686,240.704 122.186,242.037 117,238.5C 116.421,237.072 116.588,235.738 117.5,234.5 Z"/></g>
<g><path style="opacity:1" fill="#848b91" d="M 104.5,233.5 C 106.857,233.337 109.19,233.503 111.5,234C 112.281,239.356 110.281,240.523 105.5,237.5C 104.571,236.311 104.238,234.978 104.5,233.5 Z"/></g>
<g><path style="opacity:1" fill="#b1bac2" d="M 210.5,325.5 C 228.049,328.675 245.716,331.341 263.5,333.5C 261.313,342.934 258.313,352.101 254.5,361C 243.286,359.383 231.953,358.05 220.5,357C 214.07,356.124 207.736,354.79 201.5,353C 200.978,352.439 200.645,351.772 200.5,351C 202.596,341.854 205.929,333.354 210.5,325.5 Z"/></g>
<g><path style="opacity:1" fill="#f7f5f5" d="M 236.5,334.5 C 243.795,334.873 250.962,335.873 258,337.5C 255.952,343.546 254.452,349.879 253.5,356.5C 245.839,356.567 238.506,355.233 231.5,352.5C 233.178,346.47 234.845,340.47 236.5,334.5 Z"/></g>
<g><path style="opacity:1" fill="#fcfdfd" d="M 211.5,330.5 C 218.69,330.907 225.69,332.241 232.5,334.5C 230.41,340.495 228.41,346.495 226.5,352.5C 220.087,351.965 213.753,350.965 207.5,349.5C 206.359,347.579 206.192,345.579 207,343.5C 208.956,339.353 210.456,335.02 211.5,330.5 Z"/></g>
<g><path style="opacity:1" fill="#d47f83" d="M 243.5,336.5 C 252.642,336.956 254.975,341.289 250.5,349.5C 247.311,352.057 243.645,353.057 239.5,352.5C 239.716,350.319 238.883,348.653 237,347.5C 236.333,345.833 236.333,344.167 237,342.5C 239.335,340.6 241.502,338.6 243.5,336.5 Z"/></g>
</svg>
